{
  "accessors": [
    {
      "bufferView": 2,
      "componentType": 5126,
      "count": 6588,
      "max": [
        195.56549072265625,
        12.499963760375977,
        257.2607421875
      ],
      "min": [
        -195.56546020507813,
        -12.500038146972656,
        0.5211009979248047
      ],
      "type": "VEC3"
    },
    {
      "bufferView": 2,
      "byteOffset": 79056,
      "componentType": 5126,
      "count": 6588,
      "max": [
        1.0,
        1.0,
        1.0
      ],
      "min": [
        -1.0,
        -1.0,
        -1.0
      ],
      "type": "VEC3"
    },
    {
      "bufferView": 3,
      "componentType": 5126,
      "count": 6588,
      "max": [
        1.0,
        1.0,
        1.0,
        1.0
      ],
      "min": [
        -1.0,
        -1.0,
        -0.9999999403953552,
        1.0
      ],
      "type": "VEC4"
    },
    {
      "bufferView": 1,
      "componentType": 5126,
      "count": 6588,
      "max": [
        0.9985309839248657,
        0.990526020526886
      ],
      "min": [
        0.000986000057309866,
        0.000977999996393919
      ],
      "type": "VEC2"
    },
    {
      "bufferView": 0,
      "componentType": 5125,
      "count": 22656,
      "type": "SCALAR"
    },
    {
      "bufferView": 2,
      "byteOffset": 158112,
      "componentType": 5126,
      "count": 5952,
      "max": [
        -190.51727294921875,
        6.4999260902404785,
        241.28550720214844
      ],
      "min": [
        -541.696533203125,
        -7.500181198120117,
        0.5211009979248047
      ],
      "type": "VEC3"
    },
    {
      "bufferView": 2,
      "byteOffset": 229536,
      "componentType": 5126,
      "count": 5952,
      "max": [
        1.0,
        1.0,
        1.0
      ],
      "min": [
        -1.0,
        -1.0,
        -1.0
      ],
      "type": "VEC3"
    },
    {
      "bufferView": 3,
      "byteOffset": 105408,
      "componentType": 5126,
      "count": 5952,
      "max": [
        1.0,
        1.0,
        1.0,
        1.0
      ],
      "min": [
        -1.0,
        -1.0,
        -0.9999999403953552,
        1.0
      ],
      "type": "VEC4"
    },
    {
      "bufferView": 1,
      "byteOffset": 52704,
      "componentType": 5126,
      "count": 5952,
      "max": [
        0.9985309839248657,
        0.990526020526886
      ],
      "min": [
        0.0010999999940395355,
        0.000977999996393919
      ],
      "type": "VEC2"
    },
    {
      "bufferView": 0,
      "byteOffset": 90624,
      "componentType": 5125,
      "count": 20088,
      "type": "SCALAR"
    },
    {
      "bufferView": 2,
      "byteOffset": 300960,
      "componentType": 5126,
      "count": 5952,
      "max": [
        541.7448120117188,
        6.4999260902404785,
        241.28550720214844
      ],
      "min": [
        190.5655517578125,
        -7.500181198120117,
        0.5211009979248047
      ],
      "type": "VEC3"
    },
    {
      "bufferView": 2,
      "byteOffset": 372384,
      "componentType": 5126,
      "count": 5952,
      "max": [
        1.0,
        1.0,
        1.0
      ],
      "min": [
        -1.0,
        -1.0,
        -1.0
      ],
      "type": "VEC3"
    },
    {
      "bufferView": 3,
      "byteOffset": 200640,
      "componentType": 5126,
      "count": 5952,
      "max": [
        1.0,
        1.0,
        1.0,
        1.0
      ],
      "min": [
        -1.0,
        -1.0,
        -0.9999999403953552,
        1.0
      ],
      "type": "VEC4"
    },
    {
      "bufferView": 1,
      "byteOffset": 100320,
      "componentType": 5126,
      "count": 5952,
      "max": [
        0.9985309839248657,
        0.990526020526886
      ],
      "min": [
        0.0010999999940395355,
        0.000977999996393919
      ],
      "type": "VEC2"
    },
    {
      "bufferView": 0,
      "byteOffset": 170976,
      "componentType": 5125,
      "count": 20088,
      "type": "SCALAR"
    }
  ],
  "asset": {
    "extras": {
      "author": "Biser Borislavov (https://sketchfab.com/biserborislawow)",
      "license": "CC-BY-4.0 (http://creativecommons.org/licenses/by/4.0/)",
      "source": "https://sketchfab.com/3d-models/wood-fence-3ffc43adb6d7408388f906fa63025766",
      "title": "Wood Fence"
    },
    "generator": "Sketchfab-15.68.0",
    "version": "2.0"
  },
  "bufferViews": [
    {
      "buffer": 0,
      "byteLength": 251328,
      "name": "floatBufferViews",
      "target": 34963
    },
    {
      "buffer": 0,
      "byteLength": 147936,
      "byteOffset": 251328,
      "byteStride": 8,
      "name": "floatBufferViews",
      "target": 34962
    },
    {
      "buffer": 0,
      "byteLength": 443808,
      "byteOffset": 399264,
      "byteStride": 12,
      "name": "floatBufferViews",
      "target": 34962
    },
    {
      "buffer": 0,
      "byteLength": 295872,
      "byteOffset": 843072,
      "byteStride": 16,
      "name": "floatBufferViews",
      "target": 34962
    }
  ],
  "buffers": [
    {
      "byteLength": 1138944,
      "uri": "scene.bin"
    }
  ],
  "images": [
    {
      "uri": "textures/Wood_fence_01_baseColor.jpeg"
    },
    {
      "uri": "textures/Wood_fence_01_metallicRoughness.png"
    },
    {
      "uri": "textures/Wood_fence_01_normal.png"
    },
    {
      "uri": "textures/Wood_fence_02_baseColor.jpeg"
    },
    {
      "uri": "textures/Wood_fence_02_metallicRoughness.png"
    },
    {
      "uri": "textures/Wood_fence_02_normal.png"
    },
    {
      "uri": "textures/Wood_fence_03_baseColor.jpeg"
    },
    {
      "uri": "textures/Wood_fence_03_metallicRoughness.png"
    },
    {
      "uri": "textures/Wood_fence_03_normal.png"
    }
  ],
  "materials": [
    {
      "doubleSided": true,
      "name": "Wood_fence_01",
      "normalTexture": {
        "index": 2
      },
      "occlusionTexture": {
        "index": 1
      },
      "pbrMetallicRoughness": {
        "baseColorTexture": {
          "index": 0
        },
        "metallicRoughnessTexture": {
          "index": 1
        }
      }
    },
    {
      "doubleSided": true,
      "name": "Wood_fence_02",
      "normalTexture": {
        "index": 5
      },
      "occlusionTexture": {
        "index": 4
      },
      "pbrMetallicRoughness": {
        "baseColorTexture": {
          "index": 3
        },
        "metallicRoughnessTexture": {
          "index": 4
        }
      }
    },
    {
      "doubleSided": true,
      "name": "Wood_fence_03",
      "normalTexture": {
        "index": 8
      },
      "occlusionTexture": {
        "index": 7
      },
      "pbrMetallicRoughness": {
        "baseColorTexture": {
          "index": 6
        },
        "metallicRoughnessTexture": {
          "index": 7
        }
      }
    }
  ],
  "meshes": [
    {
      "name": "Object_0",
      "primitives": [
        {
          "attributes": {
            "NORMAL": 1,
            "POSITION": 0,
            "TANGENT": 2,
            "TEXCOORD_0": 3
          },
          "indices": 4,
          "material": 0,
          "mode": 4
        }
      ]
    },
    {
      "name": "Object_1",
      "primitives": [
        {
          "attributes": {
            "NORMAL": 6,
            "POSITION": 5,
            "TANGENT": 7,
            "TEXCOORD_0": 8
          },
          "indices": 9,
          "material": 1,
          "mode": 4
        }
      ]
    },
    {
      "name": "Object_2",
      "primitives": [
        {
          "attributes": {
            "NORMAL": 11,
            "POSITION": 10,
            "TANGENT": 12,
            "TEXCOORD_0": 13
          },
          "indices": 14,
          "material": 2,
          "mode": 4
        }
      ]
    }
  ],
  "nodes": [
    {
      "children": [
        1
      ],
      "matrix": [
        1.0,
        0.0,
        0.0,
        0.0,
        0.0,
        2.220446049250313e-16,
        -1.0,
        0.0,
        0.0,
        1.0,
        2.220446049250313e-16,
        0.0,
        0.0,
        0.0,
        0.0,
        1.0
      ],
      "name": "Sketchfab_model"
    },
    {
      "children": [
        2,
        3,
        4
      ],
      "name": "Wood Fence.obj.cleaner.materialmerger.gles"
    },
    {
      "mesh": 0,
      "name": "Object_2"
    },
    {
      "mesh": 1,
      "name": "Object_3"
    },
    {
      "mesh": 2,
      "name": "Object_4"
    }
  ],
  "samplers": [
    {
      "magFilter": 9729,
      "minFilter": 9987,
      "wrapS": 10497,
      "wrapT": 10497
    }
  ],
  "scene": 0,
  "scenes": [
    {
      "name": "Sketchfab_Scene",
      "nodes": [
        0
      ]
    }
  ],
  "textures": [
    {
      "sampler": 0,
      "source": 0
    },
    {
      "sampler": 0,
      "source": 1
    },
    {
      "sampler": 0,
      "source": 2
    },
    {
      "sampler": 0,
      "source": 3
    },
    {
      "sampler": 0,
      "source": 4
    },
    {
      "sampler": 0,
      "source": 5
    },
    {
      "sampler": 0,
      "source": 6
    },
    {
      "sampler": 0,
      "source": 7
    },
    {
      "sampler": 0,
      "source": 8
    }
  ]
}
