{
  "asset": {
    "version": "2.0",
    "generator": "THREE.GLTFExporter r164"
  },
  "scenes": [
    {
      "name": "Scene",
      "nodes": [
        0,
        14
      ]
    }
  ],
  "scene": 0,
  "nodes": [
    {
      "matrix": [
        1,
        0,
        0,
        0,
        0,
        1,
        0,
        0,
        0,
        0,
        1,
        0,
        1.951880951233882,
        10,
        2.13916038655172,
        1
      ],
      "name": "DirectionalLight",
      "extensions": {
        "KHR_lights_punctual": {
          "light": 0
        }
      }
    },
    {
      "name": "Sphere02",
      "mesh": 0
    },
    {
      "name": "Triangles",
      "mesh": 1
    },
    {
      "name": "Duplicate01",
      "mesh": 2
    },
    {
      "name": "Duplicate02",
      "mesh": 3
    },
    {
      "name": "Duplicate03",
      "mesh": 4
    },
    {
      "name": "Duplicate04",
      "mesh": 5
    },
    {
      "name": "Duplicate05",
      "mesh": 6
    },
    {
      "name": "Duplicate06",
      "mesh": 7
    },
    {
      "name": "Duplicate07",
      "mesh": 8
    },
    {
      "name": "Duplicate08",
      "mesh": 9
    },
    {
      "name": "Duplicate09",
      "mesh": 10
    },
    {
      "name": "Duplicate10",
      "mesh": 11
    },
    {
      "name": "Duplicate11",
      "mesh": 12
    },
    {
      "matrix": [
        0.16,
        0,
        0,
        0,
        0,
        0.16,
        0,
        0,
        0,
        0,
        0.16,
        0,
        0,
        0,
        31.503204167266524,
        1
      ],
      "name": "flower_.obj",
      "children": [
        1,
        2,
        3,
        4,
        5,
        6,
        7,
        8,
        9,
        10,
        11,
        12,
        13
      ]
    }
  ],
  "extensions": {
    "KHR_lights_punctual": {
      "lights": [
        {
          "name": "DirectionalLight",
          "color": [
            1,
            1,
            1
          ],
          "intensity": 9.44,
          "type": "directional"
        }
      ]
    }
  },
  "bufferViews": [
    {
      "buffer": 0,
      "byteOffset": 0,
      "byteLength": 4320,
      "target": 34962,
      "byteStride": 12
    },
    {
      "buffer": 0,
      "byteOffset": 4320,
      "byteLength": 4320,
      "target": 34962,
      "byteStride": 12
    },
    {
      "buffer": 0,
      "byteOffset": 8640,
      "byteLength": 2880,
      "target": 34962,
      "byteStride": 8
    },
    {
      "buffer": 0,
      "byteOffset": 11520,
      "byteLength": 3852,
      "target": 34962,
      "byteStride": 12
    },
    {
      "buffer": 0,
      "byteOffset": 15372,
      "byteLength": 3852,
      "target": 34962,
      "byteStride": 12
    },
    {
      "buffer": 0,
      "byteOffset": 19224,
      "byteLength": 2568,
      "target": 34962,
      "byteStride": 8
    },
    {
      "buffer": 0,
      "byteOffset": 21792,
      "byteLength": 3852,
      "target": 34962,
      "byteStride": 12
    },
    {
      "buffer": 0,
      "byteOffset": 25644,
      "byteLength": 3852,
      "target": 34962,
      "byteStride": 12
    },
    {
      "buffer": 0,
      "byteOffset": 29496,
      "byteLength": 2568,
      "target": 34962,
      "byteStride": 8
    },
    {
      "buffer": 0,
      "byteOffset": 32064,
      "byteLength": 3852,
      "target": 34962,
      "byteStride": 12
    },
    {
      "buffer": 0,
      "byteOffset": 35916,
      "byteLength": 3852,
      "target": 34962,
      "byteStride": 12
    },
    {
      "buffer": 0,
      "byteOffset": 39768,
      "byteLength": 2568,
      "target": 34962,
      "byteStride": 8
    },
    {
      "buffer": 0,
      "byteOffset": 42336,
      "byteLength": 3852,
      "target": 34962,
      "byteStride": 12
    },
    {
      "buffer": 0,
      "byteOffset": 46188,
      "byteLength": 3852,
      "target": 34962,
      "byteStride": 12
    },
    {
      "buffer": 0,
      "byteOffset": 50040,
      "byteLength": 2568,
      "target": 34962,
      "byteStride": 8
    },
    {
      "buffer": 0,
      "byteOffset": 52608,
      "byteLength": 3852,
      "target": 34962,
      "byteStride": 12
    },
    {
      "buffer": 0,
      "byteOffset": 56460,
      "byteLength": 3852,
      "target": 34962,
      "byteStride": 12
    },
    {
      "buffer": 0,
      "byteOffset": 60312,
      "byteLength": 2568,
      "target": 34962,
      "byteStride": 8
    },
    {
      "buffer": 0,
      "byteOffset": 62880,
      "byteLength": 3852,
      "target": 34962,
      "byteStride": 12
    },
    {
      "buffer": 0,
      "byteOffset": 66732,
      "byteLength": 3852,
      "target": 34962,
      "byteStride": 12
    },
    {
      "buffer": 0,
      "byteOffset": 70584,
      "byteLength": 2568,
      "target": 34962,
      "byteStride": 8
    },
    {
      "buffer": 0,
      "byteOffset": 73152,
      "byteLength": 3852,
      "target": 34962,
      "byteStride": 12
    },
    {
      "buffer": 0,
      "byteOffset": 77004,
      "byteLength": 3852,
      "target": 34962,
      "byteStride": 12
    },
    {
      "buffer": 0,
      "byteOffset": 80856,
      "byteLength": 2568,
      "target": 34962,
      "byteStride": 8
    },
    {
      "buffer": 0,
      "byteOffset": 83424,
      "byteLength": 3852,
      "target": 34962,
      "byteStride": 12
    },
    {
      "buffer": 0,
      "byteOffset": 87276,
      "byteLength": 3852,
      "target": 34962,
      "byteStride": 12
    },
    {
      "buffer": 0,
      "byteOffset": 91128,
      "byteLength": 2568,
      "target": 34962,
      "byteStride": 8
    },
    {
      "buffer": 0,
      "byteOffset": 93696,
      "byteLength": 3852,
      "target": 34962,
      "byteStride": 12
    },
    {
      "buffer": 0,
      "byteOffset": 97548,
      "byteLength": 3852,
      "target": 34962,
      "byteStride": 12
    },
    {
      "buffer": 0,
      "byteOffset": 101400,
      "byteLength": 2568,
      "target": 34962,
      "byteStride": 8
    },
    {
      "buffer": 0,
      "byteOffset": 103968,
      "byteLength": 3852,
      "target": 34962,
      "byteStride": 12
    },
    {
      "buffer": 0,
      "byteOffset": 107820,
      "byteLength": 3852,
      "target": 34962,
      "byteStride": 12
    },
    {
      "buffer": 0,
      "byteOffset": 111672,
      "byteLength": 2568,
      "target": 34962,
      "byteStride": 8
    },
    {
      "buffer": 0,
      "byteOffset": 114240,
      "byteLength": 3852,
      "target": 34962,
      "byteStride": 12
    },
    {
      "buffer": 0,
      "byteOffset": 118092,
      "byteLength": 3852,
      "target": 34962,
      "byteStride": 12
    },
    {
      "buffer": 0,
      "byteOffset": 121944,
      "byteLength": 2568,
      "target": 34962,
      "byteStride": 8
    },
    {
      "buffer": 0,
      "byteOffset": 124512,
      "byteLength": 3852,
      "target": 34962,
      "byteStride": 12
    },
    {
      "buffer": 0,
      "byteOffset": 128364,
      "byteLength": 3852,
      "target": 34962,
      "byteStride": 12
    },
    {
      "buffer": 0,
      "byteOffset": 132216,
      "byteLength": 2568,
      "target": 34962,
      "byteStride": 8
    }
  ],
  "buffers": [
    {
      "byteLength": 134784,
      "uri": "data:application/octet-stream;base64,"
    }
  ],
  "accessors": [
    {
      "bufferView": 0,
      "componentType": 5126,
      "count": 360,
      "max": [
        42.9604606628418,
        43.011470794677734,
        -194.15017700195312
      ],
      "min": [
        -43.0395393371582,
        -42.988529205322266,
        -237.15017700195312
      ],
      "type": "VEC3"
    },
    {
      "bufferView": 1,
      "componentType": 5126,
      "count": 360,
      "max": [
        1,
        1,
        1
      ],
      "min": [
        -1,
        -1,
        -1
      ],
      "type": "VEC3"
    },
    {
      "bufferView": 2,
      "componentType": 5126,
      "count": 360,
      "max": [
        0.8789600133895874,
        0.6582300066947937
      ],
      "min": [
        0.12104000151157379,
        0
      ],
      "type": "VEC2"
    },
    {
      "bufferView": 3,
      "componentType": 5126,
      "count": 321,
      "max": [
        35.655731201171875,
        228.7716064453125,
        -204.37240600585938
      ],
      "min": [
        -29.677600860595703,
        38.60511016845703,
        -219.07875061035156
      ],
      "type": "VEC3"
    },
    {
      "bufferView": 4,
      "componentType": 5126,
      "count": 321,
      "max": [
        0.6875100135803223,
        0.6975499987602234,
        0.9997100234031677
      ],
      "min": [
        -0.7067599892616272,
        -0.3042199909687042,
        0.5593799948692322
      ],
      "type": "VEC3"
    },
    {
      "bufferView": 5,
      "componentType": 5126,
      "count": 321,
      "max": [
        0.4106200039386749,
        1
      ],
      "min": [
        0.17021000385284424,
        0.30024001002311707
      ],
      "type": "VEC2"
    },
    {
      "bufferView": 6,
      "componentType": 5126,
      "count": 321,
      "max": [
        -10.940449714660645,
        204.53321838378906,
        -204.37240600585938
      ],
      "min": [
        -114.51087951660156,
        29.110549926757812,
        -219.07875061035156
      ],
      "type": "VEC3"
    },
    {
      "bufferView": 7,
      "componentType": 5126,
      "count": 321,
      "max": [
        0.6028199791908264,
        0.6412699818611145,
        0.9997100234031677
      ],
      "min": [
        -0.7365700006484985,
        -0.4943400025367737,
        0.5593799948692322
      ],
      "type": "VEC3"
    },
    {
      "bufferView": 8,
      "componentType": 5126,
      "count": 321,
      "max": [
        0.4106200039386749,
        1
      ],
      "min": [
        0.17021000385284424,
        0.30024001002311707
      ],
      "type": "VEC2"
    },
    {
      "bufferView": 9,
      "componentType": 5126,
      "count": 321,
      "max": [
        -28.605140686035156,
        125.64019775390625,
        -204.37240600585938
      ],
      "min": [
        -192.30931091308594,
        11.315839767456055,
        -219.07875061035156
      ],
      "type": "VEC3"
    },
    {
      "bufferView": 10,
      "componentType": 5126,
      "count": 321,
      "max": [
        0.5178899765014648,
        0.7662299871444702,
        0.9997100234031677
      ],
      "min": [
        -0.8279899954795837,
        -0.6414399743080139,
        0.5593799948692322
      ],
      "type": "VEC3"
    },
    {
      "bufferView": 11,
      "componentType": 5126,
      "count": 321,
      "max": [
        0.4106200039386749,
        1
      ],
      "min": [
        0.17021000385284424,
        0.30024001002311707
      ],
      "type": "VEC2"
    },
    {
      "bufferView": 12,
      "componentType": 5126,
      "count": 321,
      "max": [
        -38.60511016845703,
        35.655731201171875,
        -204.37240600585938
      ],
      "min": [
        -228.77159118652344,
        -29.677600860595703,
        -219.07875061035156
      ],
      "type": "VEC3"
    },
    {
      "bufferView": 13,
      "componentType": 5126,
      "count": 321,
      "max": [
        0.3042199909687042,
        0.6875100135803223,
        0.9997100234031677
      ],
      "min": [
        -0.6975499987602234,
        -0.7067599892616272,
        0.5593799948692322
      ],
      "type": "VEC3"
    },
    {
      "bufferView": 14,
      "componentType": 5126,
      "count": 321,
      "max": [
        0.4106200039386749,
        1
      ],
      "min": [
        0.17021000385284424,
        0.30024001002311707
      ],
      "type": "VEC2"
    },
    {
      "bufferView": 15,
      "componentType": 5126,
      "count": 321,
      "max": [
        -29.110549926757812,
        -10.940449714660645,
        -204.3723907470703
      ],
      "min": [
        -204.533203125,
        -114.51087951660156,
        -219.0787353515625
      ],
      "type": "VEC3"
    },
    {
      "bufferView": 16,
      "componentType": 5126,
      "count": 321,
      "max": [
        0.4943400025367737,
        0.6028199791908264,
        0.9997100234031677
      ],
      "min": [
        -0.6412699818611145,
        -0.7365700006484985,
        0.5593799948692322
      ],
      "type": "VEC3"
    },
    {
      "bufferView": 17,
      "componentType": 5126,
      "count": 321,
      "max": [
        0.4106200039386749,
        1
      ],
      "min": [
        0.17021000385284424,
        0.30024001002311707
      ],
      "type": "VEC2"
    },
    {
      "bufferView": 18,
      "componentType": 5126,
      "count": 321,
      "max": [
        -11.31583023071289,
        -28.605140686035156,
        -204.3723907470703
      ],
      "min": [
        -125.64019775390625,
        -192.30929565429688,
        -219.0787353515625
      ],
      "type": "VEC3"
    },
    {
      "bufferView": 19,
      "componentType": 5126,
      "count": 321,
      "max": [
        0.6414399743080139,
        0.5178899765014648,
        0.9997100234031677
      ],
      "min": [
        -0.7662299871444702,
        -0.8279899954795837,
        0.5593799948692322
      ],
      "type": "VEC3"
    },
    {
      "bufferView": 20,
      "componentType": 5126,
      "count": 321,
      "max": [
        0.4106200039386749,
        1
      ],
      "min": [
        0.17021000385284424,
        0.30024001002311707
      ],
      "type": "VEC2"
    },
    {
      "bufferView": 21,
      "componentType": 5126,
      "count": 321,
      "max": [
        29.677600860595703,
        -38.60511016845703,
        -204.3723907470703
      ],
      "min": [
        -35.655731201171875,
        -228.77157592773438,
        -219.0787353515625
      ],
      "type": "VEC3"
    },
    {
      "bufferView": 22,
      "componentType": 5126,
      "count": 321,
      "max": [
        0.7067599892616272,
        0.3042199909687042,
        0.9997100234031677
      ],
      "min": [
        -0.6875100135803223,
        -0.6975499987602234,
        0.5593799948692322
      ],
      "type": "VEC3"
    },
    {
      "bufferView": 23,
      "componentType": 5126,
      "count": 321,
      "max": [
        0.4106200039386749,
        1
      ],
      "min": [
        0.17021000385284424,
        0.30024001002311707
      ],
      "type": "VEC2"
    },
    {
      "bufferView": 24,
      "componentType": 5126,
      "count": 321,
      "max": [
        114.51087951660156,
        -29.110549926757812,
        -204.3723907470703
      ],
      "min": [
        10.940449714660645,
        -204.53318786621094,
        -219.0787353515625
      ],
      "type": "VEC3"
    },
    {
      "bufferView": 25,
      "componentType": 5126,
      "count": 321,
      "max": [
        0.7365700006484985,
        0.4943400025367737,
        0.9997100234031677
      ],
      "min": [
        -0.6028199791908264,
        -0.641260027885437,
        0.5593799948692322
      ],
      "type": "VEC3"
    },
    {
      "bufferView": 26,
      "componentType": 5126,
      "count": 321,
      "max": [
        0.4106200039386749,
        1
      ],
      "min": [
        0.17021000385284424,
        0.30024001002311707
      ],
      "type": "VEC2"
    },
    {
      "bufferView": 27,
      "componentType": 5126,
      "count": 321,
      "max": [
        192.30929565429688,
        -11.315839767456055,
        -204.3723907470703
      ],
      "min": [
        28.605140686035156,
        -125.64019775390625,
        -219.0787353515625
      ],
      "type": "VEC3"
    },
    {
      "bufferView": 28,
      "componentType": 5126,
      "count": 321,
      "max": [
        0.8279899954795837,
        0.6414399743080139,
        0.9997100234031677
      ],
      "min": [
        -0.5178899765014648,
        -0.7662299871444702,
        0.5593900084495544
      ],
      "type": "VEC3"
    },
    {
      "bufferView": 29,
      "componentType": 5126,
      "count": 321,
      "max": [
        0.4106200039386749,
        1
      ],
      "min": [
        0.17021000385284424,
        0.30024001002311707
      ],
      "type": "VEC2"
    },
    {
      "bufferView": 30,
      "componentType": 5126,
      "count": 321,
      "max": [
        228.7715606689453,
        29.677610397338867,
        -204.37240600585938
      ],
      "min": [
        38.60511016845703,
        -35.655731201171875,
        -219.07875061035156
      ],
      "type": "VEC3"
    },
    {
      "bufferView": 31,
      "componentType": 5126,
      "count": 321,
      "max": [
        0.6975499987602234,
        0.7067599892616272,
        0.9997100234031677
      ],
      "min": [
        -0.3042199909687042,
        -0.6875100135803223,
        0.5593900084495544
      ],
      "type": "VEC3"
    },
    {
      "bufferView": 32,
      "componentType": 5126,
      "count": 321,
      "max": [
        0.4106200039386749,
        1
      ],
      "min": [
        0.17021000385284424,
        0.30024001002311707
      ],
      "type": "VEC2"
    },
    {
      "bufferView": 33,
      "componentType": 5126,
      "count": 321,
      "max": [
        204.53317260742188,
        114.51087951660156,
        -204.37240600585938
      ],
      "min": [
        29.110549926757812,
        10.940449714660645,
        -219.07875061035156
      ],
      "type": "VEC3"
    },
    {
      "bufferView": 34,
      "componentType": 5126,
      "count": 321,
      "max": [
        0.641260027885437,
        0.7365700006484985,
        0.9997100234031677
      ],
      "min": [
        -0.4943400025367737,
        -0.6028199791908264,
        0.5593900084495544
      ],
      "type": "VEC3"
    },
    {
      "bufferView": 35,
      "componentType": 5126,
      "count": 321,
      "max": [
        0.4106200039386749,
        1
      ],
      "min": [
        0.17021000385284424,
        0.30024001002311707
      ],
      "type": "VEC2"
    },
    {
      "bufferView": 36,
      "componentType": 5126,
      "count": 321,
      "max": [
        125.64019775390625,
        192.3092803955078,
        -204.37240600585938
      ],
      "min": [
        11.31583023071289,
        28.605140686035156,
        -219.07875061035156
      ],
      "type": "VEC3"
    },
    {
      "bufferView": 37,
      "componentType": 5126,
      "count": 321,
      "max": [
        0.7662299871444702,
        0.8279899954795837,
        0.9997100234031677
      ],
      "min": [
        -0.6414399743080139,
        -0.5178899765014648,
        0.5593799948692322
      ],
      "type": "VEC3"
    },
    {
      "bufferView": 38,
      "componentType": 5126,
      "count": 321,
      "max": [
        0.4106200039386749,
        1
      ],
      "min": [
        0.17021000385284424,
        0.30024001002311707
      ],
      "type": "VEC2"
    }
  ],
  "materials": [
    {
      "pbrMetallicRoughness": {
        "metallicFactor": 0.5,
        "roughnessFactor": 0.5
      },
      "name": "Explorer_Default"
    }
  ],
  "meshes": [
    {
      "primitives": [
        {
          "mode": 4,
          "attributes": {
            "POSITION": 0,
            "NORMAL": 1,
            "TEXCOORD_0": 2
          },
          "material": 0
        }
      ]
    },
    {
      "primitives": [
        {
          "mode": 4,
          "attributes": {
            "POSITION": 3,
            "NORMAL": 4,
            "TEXCOORD_0": 5
          },
          "material": 0
        }
      ]
    },
    {
      "primitives": [
        {
          "mode": 4,
          "attributes": {
            "POSITION": 6,
            "NORMAL": 7,
            "TEXCOORD_0": 8
          },
          "material": 0
        }
      ]
    },
    {
      "primitives": [
        {
          "mode": 4,
          "attributes": {
            "POSITION": 9,
            "NORMAL": 10,
            "TEXCOORD_0": 11
          },
          "material": 0
        }
      ]
    },
    {
      "primitives": [
        {
          "mode": 4,
          "attributes": {
            "POSITION": 12,
            "NORMAL": 13,
            "TEXCOORD_0": 14
          },
          "material": 0
        }
      ]
    },
    {
      "primitives": [
        {
          "mode": 4,
          "attributes": {
            "POSITION": 15,
            "NORMAL": 16,
            "TEXCOORD_0": 17
          },
          "material": 0
        }
      ]
    },
    {
      "primitives": [
        {
          "mode": 4,
          "attributes": {
            "POSITION": 18,
            "NORMAL": 19,
            "TEXCOORD_0": 20
          },
          "material": 0
        }
      ]
    },
    {
      "primitives": [
        {
          "mode": 4,
          "attributes": {
            "POSITION": 21,
            "NORMAL": 22,
            "TEXCOORD_0": 23
          },
          "material": 0
        }
      ]
    },
    {
      "primitives": [
        {
          "mode": 4,
          "attributes": {
            "POSITION": 24,
            "NORMAL": 25,
            "TEXCOORD_0": 26
          },
          "material": 0
        }
      ]
    },
    {
      "primitives": [
        {
          "mode": 4,
          "attributes": {
            "POSITION": 27,
            "NORMAL": 28,
            "TEXCOORD_0": 29
          },
          "material": 0
        }
      ]
    },
    {
      "primitives": [
        {
          "mode": 4,
          "attributes": {
            "POSITION": 30,
            "NORMAL": 31,
            "TEXCOORD_0": 32
          },
          "material": 0
        }
      ]
    },
    {
      "primitives": [
        {
          "mode": 4,
          "attributes": {
            "POSITION": 33,
            "NORMAL": 34,
            "TEXCOORD_0": 35
          },
          "material": 0
        }
      ]
    },
    {
      "primitives": [
        {
          "mode": 4,
          "attributes": {
            "POSITION": 36,
            "NORMAL": 37,
            "TEXCOORD_0": 38
          },
          "material": 0
        }
      ]
    }
  ],
  "extensionsUsed": [
    "KHR_lights_punctual"
  ]
}